<svg id="Capa_1" enable-background="new 0 0 512 512" height="512" viewBox="0 0 512 512" width="512" xmlns="http://www.w3.org/2000/svg"><g><path d="m416.323 224.452c-4.329 0-8.658.308-12.932.886l-3.637-16.73c5.416-.8 10.948-1.22 16.569-1.22 15.684 0 30.858 3.156 45.103 9.382 3.795 1.658 8.217-.074 9.876-3.869s-.074-8.217-3.869-9.876c-16.15-7.058-33.346-10.637-51.109-10.637-6.711 0-13.31.529-19.762 1.534l-12.121-55.755 8.217-8.217c5.675-5.675 7.358-14.134 4.287-21.549-3.072-7.415-10.242-12.207-18.269-12.207h-58.547c-4.142 0-7.5 3.358-7.5 7.5s3.358 7.5 7.5 7.5h58.547c2.879 0 4.043 2.061 4.41 2.947s1.001 3.167-1.035 5.202l-11.113 11.113c-1.805 1.805-2.568 4.403-2.025 6.896l2.754 12.667c-36.265 9.512-69.031 30.781-92.63 60.228-13.943 17.398-24.371 37.314-30.842 58.477l-34.832-114.447 16.145-1.794c10.239-1.137 17.96-9.764 17.96-20.066 0-11.133-9.057-20.19-20.19-20.19h-47.795c-10.565 0-19.16 8.595-19.16 19.161v7.376c0 5.443 2.326 10.647 6.382 14.277 3.528 3.158 8.094 4.883 12.784 4.883.701 0 1.406-.039 2.11-.117l16.598-1.844 8.359 27.466-19.452 23.62c-17.747-9.354-37.945-14.66-59.362-14.66-70.437-.002-127.742 57.303-127.742 127.74 0 4.142 3.358 7.5 7.5 7.5s7.5-3.358 7.5-7.5c0-62.166 50.576-112.742 112.742-112.742 17.788 0 34.623 4.147 49.599 11.515l-11.18 13.576c-12.102-5.328-25-8.026-38.419-8.026-52.757 0-95.677 42.92-95.677 95.677s42.92 95.678 95.677 95.678c50.233 0 91.547-38.913 95.385-88.178h27.316l10.073 33.097h-5.91c-4.142 0-7.5 3.358-7.5 7.5s3.358 7.5 7.5 7.5h16.005c.008 0 .016.002.024.002.009 0 .018-.002.026-.002h16.008c4.142 0 7.5-3.358 7.5-7.5s-3.358-7.5-7.5-7.5h-10.475l-10.073-33.097h14.913c11.877 0 21.915-9.044 23.349-21.037 5.482-45.846 38.145-82.551 80.71-94.809l23.9 109.939c.763 3.511 3.869 5.908 7.321 5.908.528 0 1.064-.056 1.601-.173 4.047-.88 6.616-4.874 5.735-8.922l-17.061-78.479c3.222-.387 6.475-.605 9.732-.605 44.485 0 80.677 36.192 80.677 80.677 0 44.486-36.192 80.678-80.677 80.678-44.486 0-80.678-36.192-80.678-80.678 0-25.542 11.709-49.03 32.126-64.439 3.306-2.495 3.963-7.198 1.468-10.504-2.495-3.305-7.198-3.963-10.504-1.468-24.207 18.27-38.09 46.121-38.09 76.412 0 52.757 42.921 95.678 95.678 95.678s95.679-42.921 95.679-95.678-42.92-95.677-95.677-95.677zm-236.381-81.555c-1.608.177-2.717-.571-3.234-1.035-.518-.463-1.386-1.482-1.386-3.1v-7.376c0-2.294 1.866-4.161 4.16-4.161h47.795c2.862 0 5.19 2.329 5.19 5.19 0 2.648-1.985 4.866-4.617 5.158zm31.857 57.759 10.124 33.266c-6.534-7.132-13.867-13.519-21.852-19.025zm28.429 111.973h-17.118c-1.528-19.308-8.904-37.864-21.178-52.919-2.617-3.21-7.341-3.691-10.552-1.074-3.21 2.617-3.691 7.342-1.074 10.552 10.097 12.384 16.262 27.583 17.751 43.44h-75.044c-3.727 0-5.328-2.78-5.73-3.632s-1.53-3.856.839-6.733l62.38-75.748c28.174 18.951 47.36 50.27 49.726 86.114zm-112.486 88.178c-44.485 0-80.677-36.192-80.677-80.678 0-44.485 36.192-80.677 80.677-80.677 9.868 0 19.397 1.733 28.435 5.15l-39.634 48.127c-5.303 6.439-6.386 15.126-2.826 22.67s10.954 12.23 19.296 12.23h75.045c-3.797 40.981-38.36 73.178-80.316 73.178zm161.749-95.996c-.542 4.53-4.098 7.818-8.456 7.818 0 0-25.135-.013-25.378-.002 1.538-34.158 13.586-66.173 35.085-93 21.459-26.777 51.195-46.157 84.115-54.933l7.044 32.404c-48.696 13.613-86.156 55.413-92.41 107.713z"/></g></svg>