<?xml version="1.0" standalone="no"?>
<!DOCTYPE svg PUBLIC "-//W3C//DTD SVG 20010904//EN"
 "http://www.w3.org/TR/2001/REC-SVG-20010904/DTD/svg10.dtd">
<svg version="1.0" xmlns="http://www.w3.org/2000/svg"
 width="700.000000pt" height="700.000000pt" viewBox="0 0 700.000000 700.000000"
 preserveAspectRatio="xMidYMid meet">
<metadata>
Created by potrace 1.14, written by Peter Selinger 2001-2017
</metadata>
<g transform="translate(0.000000,700.000000) scale(0.100000,-0.100000)"
fill="#000000" stroke="none">
<path d="M967 6522 c-16 -3 -17 -55 -17 -690 l0 -687 383 1 c210 1 385 2 389
3 4 0 9 148 10 328 l3 328 30 14 c46 23 1465 19 1725 -5 146 -13 166 -15 180
-19 8 -2 34 -6 56 -9 23 -2 59 -9 80 -15 22 -6 55 -13 74 -16 73 -12 280 -88
395 -144 367 -180 645 -463 846 -862 116 -233 183 -431 225 -669 17 -101 18
-107 31 -240 14 -151 6 -635 -12 -740 -3 -14 -7 -47 -10 -75 -6 -57 -14 -103
-20 -125 -2 -8 -7 -29 -10 -46 -2 -17 -16 -71 -30 -120 -121 -419 -350 -775
-655 -1019 -41 -33 -76 -63 -78 -67 -2 -5 -7 -8 -12 -8 -4 0 -38 -21 -76 -46
-193 -130 -495 -244 -759 -288 -103 -18 -128 -20 -425 -41 -84 -6 -517 -16
-791 -19 -204 -2 -251 -5 -270 -18 -30 -19 -109 -100 -109 -111 0 -8 -57 -95
-238 -364 -93 -138 -155 -243 -147 -251 14 -14 1653 -3 1810 12 17 2 66 7 110
10 44 4 94 9 110 11 17 2 53 7 80 10 102 12 255 42 360 70 33 9 74 20 90 25
209 55 527 200 733 336 264 174 488 391 664 646 186 268 346 642 444 1038 13
55 54 264 59 309 4 30 8 61 10 71 26 133 26 702 1 836 -2 10 -7 42 -10 69 -13
104 -18 133 -37 230 -11 55 -23 111 -25 125 -11 54 -74 298 -92 355 -167 519
-418 896 -822 1237 -272 229 -670 436 -1000 519 -66 17 -205 48 -240 54 -19 3
-42 8 -50 10 -8 2 -40 7 -70 11 -97 11 -104 12 -155 18 -27 3 -97 8 -155 12
-103 7 -2551 12 -2583 6z"/>
</g>
</svg>
