<svg width="101" height="101" viewBox="0 0 101 101" fill="none" xmlns="http://www.w3.org/2000/svg">
<path d="M4.20898 86.2708C4.20898 87.3869 4.65236 88.4574 5.44158 89.2466C6.23079 90.0358 7.3012 90.4792 8.41732 90.4792H90.4798C92.154 90.4792 93.7596 89.8141 94.9434 88.6303C96.1272 87.4464 96.7923 85.8408 96.7923 84.1667V31.5625H4.20898V86.2708Z" fill="#E6E6E6"/>
<path d="M92.584 10.5208H8.41732C7.3012 10.5208 6.23079 10.9642 5.44158 11.7534C4.65236 12.5427 4.20898 13.6131 4.20898 14.7292V31.5625H96.7923V14.7292C96.7923 13.6131 96.3489 12.5427 95.5597 11.7534C94.7705 10.9642 93.7001 10.5208 92.584 10.5208Z" fill="#E86C60"/>
<path d="M21.043 21.0417V4.20834C21.043 3.65028 21.2647 3.11508 21.6593 2.72047C22.0539 2.32586 22.5891 2.10417 23.1471 2.10417H27.3555C27.9135 2.10417 28.4487 2.32586 28.8433 2.72047C29.2379 3.11508 29.4596 3.65028 29.4596 4.20834V21.0417C29.4596 21.5997 29.2379 22.1349 28.8433 22.5295C28.4487 22.9242 27.9135 23.1458 27.3555 23.1458H23.1471C22.5891 23.1458 22.0539 22.9242 21.6593 22.5295C21.2647 22.1349 21.043 21.5997 21.043 21.0417Z" fill="#444444"/>
<path d="M71.543 21.0417V4.20834C71.543 3.65028 71.7647 3.11508 72.1593 2.72047C72.5539 2.32586 73.0891 2.10417 73.6471 2.10417H77.8555C78.4135 2.10417 78.9487 2.32586 79.3433 2.72047C79.738 3.11508 79.9596 3.65028 79.9596 4.20834V21.0417C79.9596 21.5997 79.738 22.1349 79.3433 22.5295C78.9487 22.9242 78.4135 23.1458 77.8555 23.1458H73.6471C73.0891 23.1458 72.5539 22.9242 72.1593 22.5295C71.7647 22.1349 71.543 21.5997 71.543 21.0417Z" fill="#444444"/>
<path d="M56.8125 77.8542C56.8125 82.0158 58.0466 86.084 60.3587 89.5443C62.6708 93.0046 65.957 95.7015 69.8019 97.2941C73.6467 98.8867 77.8775 99.3034 81.9592 98.4915C86.0409 97.6796 89.7901 95.6756 92.7329 92.7329C95.6756 89.7901 97.6796 86.0409 98.4915 81.9592C99.3034 77.8775 98.8867 73.6467 97.2941 69.8019C95.7015 65.957 93.0046 62.6708 89.5443 60.3587C86.084 58.0466 82.0158 56.8125 77.8542 56.8125C72.2755 56.8186 66.927 59.0375 62.9822 62.9822C59.0375 66.927 56.8186 72.2755 56.8125 77.8542Z" fill="#72C472"/>
<path d="M89.8635 70.054C90.258 70.4486 90.4796 70.9837 90.4796 71.5417C90.4796 72.0996 90.258 72.6347 89.8635 73.0293L75.1343 87.7585C74.7397 88.153 74.2046 88.3746 73.6467 88.3746C73.0887 88.3746 72.5536 88.153 72.159 87.7585L65.8465 81.446C65.4632 81.0491 65.2511 80.5176 65.2559 79.9659C65.2607 79.4142 65.482 78.8865 65.8722 78.4963C66.2623 78.1062 66.79 77.8849 67.3417 77.8801C67.8934 77.8753 68.425 78.0874 68.8218 78.4707L73.6467 83.2955L86.8882 70.054C87.2828 69.6596 87.8179 69.438 88.3758 69.438C88.9338 69.438 89.4689 69.6596 89.8635 70.054Z" fill="white"/>
</svg>
