<svg width="26" height="17" viewBox="0 0 26 17" fill="none" xmlns="http://www.w3.org/2000/svg">
<g clip-path="url(#clip0)">
<path d="M15 3.95767L17.2727 2.69841L17.0909 2.33862C17 2.15873 16.8182 1.5291 16 0.719577C14.8182 -0.449735 13.7273 0.0899471 13.7273 0.179894L0.909074 6.83598C0.36362 7.10582 -0.363653 8.09524 0.36362 9.53439C1.09089 11.2434 2.27271 11.6931 2.27271 11.6931L12.0909 17L26 9.71428L15 3.95767ZM14.0909 0.989418C14.1818 0.989418 14.6363 0.719577 15.2727 1.43915C15.6363 1.79894 15.9091 2.15873 16 2.33862L3.99998 8.63492C3.81817 8.36508 3.63635 8.09524 3.36362 7.6455C3.09089 7.37566 2.81817 7.19577 2.54544 7.01587L14.0909 0.989418ZM2.63635 10.8836C2.63635 10.8836 1.72726 10.5238 1.09089 9.26455C0.636347 8.18518 1.1818 7.73545 1.27271 7.6455C1.54544 7.46561 2.09089 7.6455 2.54544 8.18519C3.09089 8.81481 3.27271 9.3545 3.27271 9.3545L3.45453 9.89418L14.0909 4.31746C14.2727 4.49735 14.4545 4.67725 14.5454 4.7672L24 9.71428L12 16.0106L2.63635 10.8836Z" fill="#B3B3B3"/>
</g>
<defs>
<clipPath id="clip0">
<rect width="26" height="17" fill="white"/>
</clipPath>
</defs>
</svg>
