<svg width="101" height="101" viewBox="0 0 101 101" fill="none" xmlns="http://www.w3.org/2000/svg">
<path d="M88.3744 73.6458H37.8743C35.5492 73.6458 33.666 71.7626 33.666 69.4375V6.31246C33.666 3.98735 35.5492 2.10413 37.8743 2.10413H88.3744C90.6995 2.10413 92.5827 3.98735 92.5827 6.31246V69.4375C92.5827 71.7626 90.6995 73.6458 88.3744 73.6458Z" fill="#B3B3B3"/>
<path d="M75.7494 86.2708H25.2493C22.9242 86.2708 21.041 84.3876 21.041 82.0625V18.9375C21.041 16.6124 22.9242 14.7291 25.2493 14.7291H75.7494C78.0745 14.7291 79.9577 16.6124 79.9577 18.9375V82.0625C79.9577 84.3876 78.0745 86.2708 75.7494 86.2708Z" fill="#C6C6C6"/>
<path d="M63.1244 98.8958H12.6243C10.2992 98.8958 8.41602 97.0126 8.41602 94.6875V31.5625C8.41602 29.2374 10.2992 27.3541 12.6243 27.3541H63.1244C65.4495 27.3541 67.3327 29.2374 67.3327 31.5625V94.6875C67.3327 97.0126 65.4495 98.8958 63.1244 98.8958Z" fill="#E6E6E6"/>
<path d="M71.5417 86.2708C83.1627 86.2708 92.5833 76.8502 92.5833 65.2292C92.5833 53.6082 83.1627 44.1875 71.5417 44.1875C59.9207 44.1875 50.5 53.6082 50.5 65.2292C50.5 76.8502 59.9207 86.2708 71.5417 86.2708Z" fill="white"/>
<path d="M71.5423 88.375C58.7805 88.375 48.3965 77.991 48.3965 65.2292C48.3965 52.4674 58.7805 42.0834 71.5423 42.0834C84.3041 42.0834 94.6882 52.4674 94.6882 65.2292C94.6882 77.991 84.3041 88.375 71.5423 88.375ZM71.5423 46.2917C61.0993 46.2917 52.6048 54.7862 52.6048 65.2292C52.6048 75.6722 61.0993 84.1667 71.5423 84.1667C81.9853 84.1667 90.4798 75.6722 90.4798 65.2292C90.4798 54.7862 81.9853 46.2917 71.5423 46.2917Z" fill="#E86C60"/>
<path d="M79.9583 67.3334H71.5417C70.3781 67.3334 69.4375 66.3928 69.4375 65.2292V56.8125C69.4375 55.6489 70.3781 54.7084 71.5417 54.7084C72.7053 54.7084 73.6458 55.6489 73.6458 56.8125V63.125H79.9583C81.1219 63.125 82.0625 64.0656 82.0625 65.2292C82.0625 66.3928 81.1219 67.3334 79.9583 67.3334Z" fill="#E84E10"/>
</svg>
