<svg width="95" height="84" viewBox="0 0 95 84" fill="none" xmlns="http://www.w3.org/2000/svg">
<path d="M77.625 69.7532H3.375C2.92745 69.7532 2.49823 69.5754 2.18176 69.2589C1.86529 68.9424 1.6875 68.5132 1.6875 68.0657V14.0657C1.6875 13.6181 1.86529 13.1889 2.18176 12.8724C2.49823 12.5559 2.92745 12.3782 3.375 12.3782H77.625C78.0726 12.3782 78.5018 12.5559 78.8183 12.8724C79.1347 13.1889 79.3125 13.6181 79.3125 14.0657V68.0657C79.3125 68.5132 79.1347 68.9424 78.8183 69.2589C78.5018 69.5754 78.0726 69.7532 77.625 69.7532Z" fill="#626782" fill-opacity="0.12"/>
<path d="M40.5007 49.5032C40.0807 49.5033 39.6758 49.3469 39.365 49.0644L2.23998 15.3144C1.98788 15.0853 1.81104 14.7852 1.73271 14.4537C1.65438 14.1221 1.67823 13.7746 1.80112 13.4569C1.92402 13.1392 2.1402 12.8661 2.42123 12.6735C2.70227 12.481 3.035 12.378 3.37566 12.3782H77.6257C77.9663 12.378 78.2991 12.481 78.5801 12.6735C78.8611 12.8661 79.0773 13.1392 79.2002 13.4569C79.3231 13.7746 79.3469 14.1221 79.2686 14.4537C79.1903 14.7852 79.0134 15.0853 78.7614 15.3144L41.6364 49.0644C41.3256 49.3469 40.9206 49.5033 40.5007 49.5032Z" fill="#626782" fill-opacity="0.25"/>
<path d="M75.6452 75.2532C84.5048 75.2532 91.6869 68.0711 91.6869 59.2115C91.6869 50.3519 84.5048 43.1698 75.6452 43.1698C66.7856 43.1698 59.6035 50.3519 59.6035 59.2115C59.6035 68.0711 66.7856 75.2532 75.6452 75.2532Z" fill="white"/>
<path d="M75.6458 76.8573C65.9166 76.8573 58 68.9408 58 59.2115C58 49.4822 65.9166 41.5657 75.6458 41.5657C85.3751 41.5657 93.2917 49.4822 93.2917 59.2115C93.2917 68.9408 85.3751 76.8573 75.6458 76.8573ZM75.6458 44.774C67.6844 44.774 61.2083 51.25 61.2083 59.2115C61.2083 67.173 67.6844 73.649 75.6458 73.649C83.6073 73.649 90.0833 67.173 90.0833 59.2115C90.0833 51.25 83.6073 44.774 75.6458 44.774Z" fill="#283583"/>
<path d="M82.0619 60.8157H75.6452C74.7581 60.8157 74.041 60.0986 74.041 59.2115V52.7948C74.041 51.9077 74.7581 51.1907 75.6452 51.1907C76.5323 51.1907 77.2494 51.9077 77.2494 52.7948V57.6073H82.0619C82.949 57.6073 83.666 58.3244 83.666 59.2115C83.666 60.0986 82.949 60.8157 82.0619 60.8157Z" fill="#283583"/>
</svg>
