<svg width="24" height="24" viewBox="0 0 24 24" fill="none" xmlns="http://www.w3.org/2000/svg">
<path d="M12.5 15.5C13.6046 15.5 14.5 14.6046 14.5 13.5C14.5 12.3954 13.6046 11.5 12.5 11.5C11.3954 11.5 10.5 12.3954 10.5 13.5C10.5 14.6046 11.3954 15.5 12.5 15.5Z" stroke="#111111" stroke-miterlimit="10" stroke-linecap="square"/>
<path d="M3.5 15.5C4.60457 15.5 5.5 14.6046 5.5 13.5C5.5 12.3954 4.60457 11.5 3.5 11.5C2.39543 11.5 1.5 12.3954 1.5 13.5C1.5 14.6046 2.39543 15.5 3.5 15.5Z" stroke="#111111" stroke-miterlimit="10" stroke-linecap="square"/>
<path d="M21.5 15.5C22.6046 15.5 23.5 14.6046 23.5 13.5C23.5 12.3954 22.6046 11.5 21.5 11.5C20.3954 11.5 19.5 12.3954 19.5 13.5C19.5 14.6046 20.3954 15.5 21.5 15.5Z" stroke="#111111" stroke-miterlimit="10" stroke-linecap="square"/>
</svg>
