<svg width="25" height="25" viewBox="0 0 25 25" fill="none" xmlns="http://www.w3.org/2000/svg">
<path d="M25 12.4999C25 5.59625 19.4036 -0.000244141 12.5 -0.000244141C5.59644 -0.000244141 0 5.59625 0 12.4999C0 18.739 4.57107 23.9104 10.5469 24.8481V16.1132H7.37305V12.4999H10.5469V9.74594C10.5469 6.6131 12.413 4.88262 15.2683 4.88262C16.6359 4.88262 18.0664 5.12676 18.0664 5.12676V8.20296H16.4902C14.9374 8.20296 14.4531 9.16652 14.4531 10.1551V12.4999H17.9199L17.3657 16.1132H14.4531V24.8481C20.4289 23.9104 25 18.739 25 12.4999Z" fill="black"/>
<path d="M17.3657 16.1132L17.9199 12.4999H14.4531V10.1551C14.4531 9.16658 14.9374 8.20302 16.4902 8.20302H18.0664V5.12683C18.0664 5.12683 16.6359 4.88269 15.2683 4.88269C12.413 4.88269 10.5469 6.61317 10.5469 9.746V12.4999H7.37305V16.1132H10.5469V24.8481C11.1833 24.948 11.8355 25 12.5 25C13.1645 25 13.8167 24.948 14.4531 24.8481V16.1132H17.3657Z" fill="white"/>
</svg>
