<svg width="20" height="20" viewBox="0 0 20 20" fill="none" xmlns="http://www.w3.org/2000/svg">
<path d="M16.0938 12.9687C16.3839 13.2587 16.7773 13.4215 17.1875 13.4215C17.5977 13.4215 17.9911 13.2587 18.2813 12.9687C18.5712 12.6786 18.734 12.2852 18.734 11.875C18.734 11.4648 18.5712 11.0714 18.2813 10.7812L12.5 5" stroke="#C78512" stroke-linecap="round" stroke-linejoin="round"/>
<path d="M0.625 8.125V1.875H6.9375C7.12558 1.87512 7.31346 1.88723 7.5 1.91125" stroke="#C78512" stroke-linecap="round" stroke-linejoin="round"/>
<path d="M14.3749 11.25L16.2662 13.1412C16.5561 13.4314 16.7189 13.8248 16.7189 14.235C16.7189 14.6452 16.5561 15.0386 16.2662 15.3287C15.976 15.6187 15.5826 15.7815 15.1724 15.7815C14.7622 15.7815 14.3688 15.6187 14.0787 15.3287L12.1699 13.42" stroke="#C78512" stroke-linecap="round" stroke-linejoin="round"/>
<path d="M13.5938 14.8438C13.8837 15.1339 14.0465 15.5273 14.0465 15.9375C14.0465 16.3477 13.8837 16.7411 13.5938 17.0312" stroke="#C78512" stroke-linecap="round" stroke-linejoin="round"/>
<path d="M12.4999 5L8.1886 8.23375C7.98158 8.38884 7.73549 8.48326 7.47786 8.50644C7.22023 8.52962 6.96123 8.48064 6.72985 8.365C6.53224 8.26628 6.36092 8.122 6.23003 7.94406C6.09913 7.76611 6.01241 7.55961 5.977 7.34156C5.9416 7.12352 5.95853 6.90018 6.0264 6.68997C6.09427 6.47975 6.21113 6.28868 6.36735 6.1325L10.1911 2.79875C10.8738 2.20336 11.749 1.87523 12.6549 1.875H19.3749V8.125" stroke="#C78512" stroke-linecap="round" stroke-linejoin="round"/>
<path d="M2.34376 10.1567L2.03086 10.4696C1.42702 11.0734 1.42702 12.0524 2.03086 12.6563L2.03175 12.6572C2.6356 13.261 3.61463 13.261 4.21847 12.6572L4.53137 12.3443C5.13522 11.7404 5.13522 10.7614 4.53137 10.1576L4.53049 10.1567C3.92664 9.55282 2.94761 9.55282 2.34376 10.1567Z" stroke="#C78512" stroke-linecap="round" stroke-linejoin="round"/>
<path d="M4.61914 12.2576L4.13389 12.7428C3.53004 13.3467 3.53004 14.3257 4.13389 14.9295L4.13478 14.9304C4.73862 15.5343 5.71765 15.5343 6.3215 14.9304L6.80676 14.4452C7.4106 13.8413 7.4106 12.8623 6.80676 12.2585L6.80587 12.2576C6.20202 11.6537 5.22299 11.6537 4.61914 12.2576Z" stroke="#C78512" stroke-linecap="round" stroke-linejoin="round"/>
<path d="M6.6338 14.616L6.3209 14.9289C5.71705 15.5328 5.71706 16.5118 6.3209 17.1156L6.32179 17.1165C6.92563 17.7204 7.90467 17.7204 8.50851 17.1165L8.82141 16.8036C9.42526 16.1998 9.42526 15.2208 8.82141 14.6169L8.82053 14.616C8.21668 14.0122 7.23765 14.0122 6.6338 14.616Z" stroke="#C78512" stroke-linecap="round" stroke-linejoin="round"/>
<path d="M8.84617 16.7794L8.52178 17.1038C8.00385 17.6217 8.00365 18.4612 8.52134 18.9789C9.03903 19.4966 9.87857 19.4964 10.3965 18.9785L10.7209 18.6541C11.2388 18.1362 11.239 17.2966 10.7213 16.7789C10.2036 16.2612 9.3641 16.2614 8.84617 16.7794Z" stroke="#C78512" stroke-linecap="round" stroke-linejoin="round"/>
</svg>
