<svg width="6" height="10" viewBox="0 0 6 10" fill="none" xmlns="http://www.w3.org/2000/svg">
<path d="M1.04 5.775C1.04 6.828 1.885 7.595 3.224 7.595C4.329 7.595 5.148 7.075 5.577 6.035L4.472 5.424C4.251 6.139 3.822 6.503 3.211 6.503C2.704 6.503 2.34 6.191 2.34 5.762C2.34 5.242 2.743 4.956 3.575 4.761C5.226 4.384 5.85 3.734 5.85 2.655C5.85 1.524 4.914 0.77 3.315 0.77C1.911 0.77 0.845 1.446 0.39 2.785L1.495 3.37C1.742 2.382 2.418 1.875 3.25 1.875C4.069 1.875 4.55 2.239 4.55 2.72C4.55 3.24 4.16 3.552 3.224 3.721C1.768 3.968 1.04 4.657 1.04 5.775ZM2.47 10H4.03V8.44H2.47V10Z" fill="black"/>
</svg>
