<svg width="24" height="24" viewBox="0 0 24 24" fill="none" xmlns="http://www.w3.org/2000/svg">
<path d="M12 2.16867C15.1988 2.16867 15.5783 2.18675 16.8434 2.24096C18.2169 2.29518 19.4819 2.58434 20.4578 3.54217C21.4337 4.5 21.7048 5.78313 21.759 7.15663C21.8133 8.42169 21.8313 8.8012 21.8313 12C21.8313 15.1988 21.8133 15.5783 21.759 16.8434C21.7048 18.2169 21.4157 19.4819 20.4578 20.4578C19.5 21.4337 18.2169 21.7048 16.8434 21.759C15.5783 21.8133 15.1988 21.8313 12 21.8313C8.8012 21.8313 8.42169 21.8133 7.15663 21.759C5.78313 21.7048 4.51807 21.4157 3.54217 20.4578C2.56627 19.5 2.29518 18.2169 2.24096 16.8434C2.18675 15.5783 2.16867 15.1988 2.16867 12C2.16867 8.8012 2.18675 8.42169 2.24096 7.15663C2.31325 5.78313 2.58434 4.51807 3.56024 3.54217C4.53614 2.56627 5.80121 2.29518 7.1747 2.24096C8.42169 2.18675 8.8012 2.16867 12 2.16867ZM12 0C8.74699 0 8.33133 0.0180723 7.04819 0.0722892C5.09639 0.162651 3.39759 0.650602 2.00602 2.0241C0.614458 3.39759 0.162651 5.11446 0.0722892 7.04819C0.0180723 8.33133 0 8.74699 0 12C0 15.253 0.0180723 15.6687 0.0722892 16.9518C0.162651 18.9036 0.63253 20.6024 2.00602 21.994C3.37952 23.3855 5.09639 23.8373 7.04819 23.9277C8.33133 23.9819 8.72892 24 12 24C15.2711 24 15.6687 23.9819 16.9518 23.9277C18.9036 23.8373 20.6205 23.3675 21.994 21.994C23.3675 20.6205 23.8554 18.9036 23.9277 16.9518C23.9819 15.6687 24 15.2711 24 12C24 8.72892 23.9819 8.33133 23.9277 7.04819C23.8373 5.09639 23.3675 3.37952 21.994 2.00602C20.6205 0.63253 18.9036 0.162651 16.9518 0.0722892C15.6687 0.0180723 15.253 0 12 0Z" fill="black"/>
<path d="M11.9996 5.83728C8.60197 5.83728 5.83691 8.60234 5.83691 11.9999C5.83691 15.3975 8.60197 18.1626 11.9996 18.1626C15.3972 18.1626 18.1622 15.3975 18.1622 11.9999C18.1622 8.60234 15.3972 5.83728 11.9996 5.83728ZM11.9996 16.012C9.79475 16.012 8.00559 14.2228 8.00559 12.018C8.00559 9.81318 9.79475 8.02403 11.9996 8.02403C14.2044 8.02403 15.9935 9.81318 15.9935 12.018C15.9935 14.2228 14.2044 16.012 11.9996 16.012Z" fill="black"/>
<path d="M18.3979 7.04819C19.1964 7.04819 19.8437 6.40089 19.8437 5.6024C19.8437 4.80392 19.1964 4.15662 18.3979 4.15662C17.5994 4.15662 16.9521 4.80392 16.9521 5.6024C16.9521 6.40089 17.5994 7.04819 18.3979 7.04819Z" fill="black"/>
</svg>
