<svg width="16" height="16" viewBox="0 0 16 16" fill="none" xmlns="http://www.w3.org/2000/svg">
<g clip-path="url(#clip0)">
<path d="M12.3333 1L6.844 6.48933C6.46733 6.39067 6.074 6.33333 5.66667 6.33333C3.08933 6.33333 1 8.42267 1 11C1 13.5773 3.08933 15.6667 5.66667 15.6667C8.244 15.6667 10.3333 13.5773 10.3333 11C10.3333 10.406 10.218 9.84 10.016 9.31733L11.6667 7.66667V5.66667H13.6667L15.6667 3.66667V1H12.3333Z" stroke="#111111" stroke-miterlimit="10" stroke-linecap="square"/>
<path d="M5.66634 12.3334C6.40272 12.3334 6.99967 11.7365 6.99967 11.0001C6.99967 10.2637 6.40272 9.66675 5.66634 9.66675C4.92996 9.66675 4.33301 10.2637 4.33301 11.0001C4.33301 11.7365 4.92996 12.3334 5.66634 12.3334Z" stroke="#111111" stroke-miterlimit="10" stroke-linecap="square"/>
</g>
<defs>
<clipPath id="clip0">
<rect width="16" height="16" fill="white"/>
</clipPath>
</defs>
</svg>
