<svg width="16" height="16" viewBox="0 0 16 16" fill="none" xmlns="http://www.w3.org/2000/svg">
<g clip-path="url(#clip0)">
<path d="M1 9V13C1 13.3536 1.14048 13.6928 1.39052 13.9428C1.64057 14.1929 1.97971 14.3333 2.33333 14.3333H14.3333C14.687 14.3333 15.0261 14.1929 15.2761 13.9428C15.5262 13.6928 15.6667 13.3536 15.6667 13V9" stroke="#111111" stroke-miterlimit="10" stroke-linecap="square"/>
<path d="M15.6667 5.66659V3.66659C15.6667 3.31296 15.5262 2.97382 15.2761 2.72378C15.0261 2.47373 14.687 2.33325 14.3333 2.33325H2.33333C1.97971 2.33325 1.64057 2.47373 1.39052 2.72378C1.14048 2.97382 1 3.31296 1 3.66659V5.66659L8.33333 9.66659L15.6667 5.66659Z" stroke="#111111" stroke-miterlimit="10" stroke-linecap="square"/>
</g>
<defs>
<clipPath id="clip0">
<rect width="16" height="16" fill="white"/>
</clipPath>
</defs>
</svg>
