<svg width="100" height="21" viewBox="0 0 100 21" fill="none" xmlns="http://www.w3.org/2000/svg">
<path d="M15.5 4.7841C14.7 5.2841 13.8 5.6841 13 6.1841C13 6.0841 12.9 5.9841 12.9 5.8841C12.2 3.7841 10.7 2.5841 8.4 2.4841C7.5 2.4841 6.7 2.5841 5.8 2.8841C3.8 3.7841 3.5 6.1841 5.4 7.4841C6.4 8.1841 7.5 8.4841 8.7 8.7841C10 9.0841 11.3 9.3841 12.5 9.7841C13.6 10.0841 14.5 10.6841 15.3 11.5841C16.8 13.2841 16.8 16.0841 15.3 17.9841C14.2 19.3841 12.8 20.0841 11.1 20.4841C8.6 20.9841 6.3 20.7841 4 19.5841C1.9 18.5841 0.7 16.8841 0 14.7841C0 14.6841 0 14.4841 0.1 14.4841C0.9 13.9841 1.6 13.4841 2.4 13.0841C2.5 13.4841 2.6 13.8841 2.8 14.1841C3.6 16.2841 5 17.6841 7.2 18.0841C8.7 18.3841 10.1 18.2841 11.5 17.6841C13 17.0841 13.8 15.6841 13.5 14.2841C13.4 13.4841 12.9 12.9841 12.2 12.5841C11.2 11.9841 10 11.6841 8.8 11.4841C7.3 11.1841 5.8 10.8841 4.5 10.1841C3.1 9.3841 2 8.3841 1.6 6.7841C1 4.3841 2 2.1841 4.2 0.984095C6.8 -0.515905 11.2 -0.415905 13.8 2.0841C14.5 2.7841 15.1 3.6841 15.5 4.7841ZM56 7.1841C53.7 5.8841 49.8 6.3841 48 9.5841C46.9 11.4841 46.7 13.4841 47.1 15.5841C47.5 17.6841 48.6 19.3841 50.7 20.2841C53.2 21.3841 56.3 20.8841 57.9 18.3841C57.9 18.3841 58 18.2841 58.1 18.2841C58.1 19.0841 58.1 19.8841 58.1 20.5841C58.9 20.5841 59.7 20.5841 60.5 20.5841C60.5 13.8841 60.5 7.0841 60.5 0.384095C59.7 0.384095 58.8 0.384095 58 0.384095C58 3.3841 58 6.2841 58 9.1841C57.5 8.2841 56.8 7.5841 56 7.1841ZM56.5 17.5841C54.3 19.4841 51.1 18.6841 49.9 16.0841C49.2 14.4841 49.2 12.8841 49.9 11.3841C50.6 9.78409 51.9 8.8841 53.7 8.8841C55.5 8.8841 56.7 9.8841 57.5 11.3841C57.9 12.1841 58 12.9841 58 14.1841C58.1 15.1841 57.7 16.5841 56.5 17.5841ZM84.4 2.8841C85.4 2.8841 86.4 2.8841 87.4 2.8841C88.4 2.8841 89.4 2.8841 90.4 2.9841C92.8 3.2841 94.6 4.5841 95.6 6.8841C96.4 8.5841 96.4 10.4841 96.2 12.2841C95.7 15.5841 93.3 17.8841 89.9 18.0841C88.6 18.1841 87.3 18.1841 86 18.1841C85.8 18.1841 85.7 18.2841 85.5 18.4841C85.1 19.1841 84.6 19.7841 84.2 20.4841C84.2 20.5841 84.1 20.5841 84.1 20.6841C85.7 20.6841 87.4 20.6841 89 20.6841C89.8 20.6841 90.7 20.5841 91.5 20.4841C94.8 19.8841 97.3 17.9841 98.4 14.7841C99.3 12.3841 99.3 9.9841 98.7 7.5841C98.3 5.8841 97.5 4.2841 96.2 3.0841C94.3 1.2841 92 0.584095 89.4 0.584095C86.9 0.584095 84.4 0.584095 81.9 0.584095C81.8 0.584095 81.7 0.584095 81.5 0.584095C81.5 2.1841 81.5 3.6841 81.5 5.1841C82.4 5.1841 83.2 5.1841 84.1 5.1841C84.1 4.4841 84.1 3.7841 84.1 2.9841C84.1 2.9841 84.3 2.8841 84.4 2.8841ZM71 9.6841C70 11.2841 69.8 13.0841 70.1 14.9841C70.4 16.5841 71.1 17.9841 72.3 19.0841C73.8 20.3841 75.5 20.8841 77.4 20.6841C79.8 20.5841 81.7 19.4841 83 17.2841C83.7 16.0841 83.9 14.7841 83.9 13.3841C83.9 9.3841 80.9 6.3841 76.2 6.3841C74.4 6.5841 72.4 7.4841 71 9.6841ZM74.1 9.8841C76.5 7.6841 80.2 8.6841 81.1 11.7841C81.6 13.2841 81.5 14.7841 80.8 16.1841C80 17.6841 78.7 18.4841 76.9 18.4841C75 18.4841 73.8 17.4841 73 15.7841C72.7 15.0841 72.6 14.3841 72.6 13.2841C72.6 12.1841 73 10.8841 74.1 9.8841ZM41.4 13.8841C41.4 14.3841 41.3 14.8841 41.3 15.3841C41 17.0841 39.8 18.2841 38.2 18.5841C36.7 18.7841 35.2 18.2841 34.7 16.4841C34.6 16.0841 34.5 15.6841 34.5 15.2841C34.5 12.5841 34.5 9.8841 34.5 7.1841C34.5 7.0841 34.5 6.8841 34.5 6.7841C33.6 6.7841 32.8 6.7841 32 6.7841C32 6.8841 32 7.0841 32 7.1841C32 9.9841 32 12.7841 32 15.5841C32 15.9841 32 16.3841 32.1 16.7841C32.3 18.2841 32.9 19.4841 34.3 20.1841C36.2 21.1841 39.3 21.1841 41.1 18.6841C41.2 18.5841 41.3 18.4841 41.4 18.2841C41.4 19.0841 41.4 19.7841 41.4 20.4841C42.2 20.4841 43.1 20.4841 43.9 20.4841C43.9 15.8841 43.9 11.3841 43.9 6.7841C43.1 6.7841 42.2 6.7841 41.4 6.7841C41.4 9.1841 41.4 11.4841 41.4 13.8841ZM23.2 6.7841C23.2 5.3841 23.2 3.9841 23.2 2.5841C22.4 2.5841 21.5 2.5841 20.7 2.5841C20.7 3.9841 20.7 5.3841 20.7 6.7841C19.8 6.7841 18.9 6.7841 18 6.7841C18 7.4841 18 8.1841 18 8.8841C18.9 8.8841 19.8 8.8841 20.7 8.8841C20.7 9.0841 20.7 9.1841 20.7 9.3841C20.7 11.7841 20.7 14.2841 20.7 16.6841C20.7 18.3841 21.4 19.6841 23 20.3841C24.2 20.8841 25.5 20.8841 26.7 20.5841C28.2 20.0841 29.5 18.3841 29.4 16.9841C29 16.8841 28.6 16.7841 28.3 16.6841C27.9 16.5841 27.5 16.4841 27.2 16.4841C27.1 16.7841 27.1 17.0841 27 17.2841C26.7 18.2841 26 18.6841 24.9 18.5841C24 18.4841 23.4 17.8841 23.3 16.9841C23.3 16.7841 23.3 16.5841 23.3 16.3841C23.3 14.0841 23.3 11.6841 23.3 9.3841C23.3 9.28409 23.3 9.1841 23.3 8.9841C25 8.9841 26.6 8.9841 28.2 8.9841C28.2 8.2841 28.2 7.5841 28.2 6.8841C26.5 6.7841 24.9 6.7841 23.2 6.7841ZM66.9 6.7841C66.1 6.7841 65.2 6.7841 64.5 6.7841C64.5 11.3841 64.5 15.8841 64.5 20.4841C65.3 20.4841 66.1 20.4841 66.9 20.4841C66.9 15.8841 66.9 11.3841 66.9 6.7841ZM67.1 1.3841C66.2 1.3841 65.3 1.3841 64.4 1.3841C64.4 2.3841 64.4 3.2841 64.4 4.2841C65.3 4.2841 66.2 4.2841 67.1 4.2841C67.1 3.2841 67.1 2.3841 67.1 1.3841Z" fill="black"/>
</svg>
