<svg width="100" height="21" viewBox="0 0 100 21" fill="none" xmlns="http://www.w3.org/2000/svg">
<path d="M15.5 4.8C14.7 5.3 13.8 5.7 13 6.2C13 6.1 12.9 6 12.9 5.9C12.2 3.8 10.7 2.59999 8.4 2.49999C7.5 2.49999 6.7 2.6 5.8 2.9C3.8 3.79999 3.5 6.2 5.4 7.5C6.4 8.2 7.5 8.5 8.7 8.8C10 9.1 11.3 9.4 12.5 9.8C13.6 10.1 14.5 10.7 15.3 11.6C16.8 13.3 16.8 16.1 15.3 18C14.2 19.4 12.8 20.1 11.1 20.5C8.6 21 6.3 20.8 4 19.6C1.9 18.6 0.7 16.9 0 14.8C0 14.7 0 14.5 0.1 14.5C0.9 14 1.6 13.5 2.4 13.1C2.5 13.5 2.6 13.9 2.8 14.2C3.6 16.3 5 17.7 7.2 18.1C8.7 18.4 10.1 18.3 11.5 17.7C13 17.1 13.8 15.7 13.5 14.3C13.4 13.5 12.9 13 12.2 12.6C11.2 12 10 11.7 8.8 11.5C7.3 11.2 5.8 10.9 4.5 10.2C3.1 9.39999 2 8.4 1.6 6.8C1 4.4 2 2.2 4.2 0.999995C6.8 -0.500005 11.2 -0.400005 13.8 2.09999C14.5 2.79999 15.1 3.7 15.5 4.8ZM56 7.2C53.7 5.89999 49.8 6.4 48 9.6C46.9 11.5 46.7 13.5 47.1 15.6C47.5 17.7 48.6 19.4 50.7 20.3C53.2 21.4 56.3 20.9 57.9 18.4C57.9 18.4 58 18.3 58.1 18.3C58.1 19.1 58.1 19.9 58.1 20.6C58.9 20.6 59.7 20.6 60.5 20.6C60.5 13.9 60.5 7.09999 60.5 0.399995C59.7 0.399995 58.8 0.399995 58 0.399995C58 3.4 58 6.29999 58 9.2C57.5 8.3 56.8 7.6 56 7.2ZM56.5 17.6C54.3 19.5 51.1 18.7 49.9 16.1C49.2 14.5 49.2 12.9 49.9 11.4C50.6 9.79999 51.9 8.89999 53.7 8.89999C55.5 8.89999 56.7 9.89999 57.5 11.4C57.9 12.2 58 13 58 14.2C58.1 15.2 57.7 16.6 56.5 17.6ZM84.4 2.9C85.4 2.9 86.4 2.9 87.4 2.9C88.4 2.9 89.4 2.9 90.4 2.99999C92.8 3.29999 94.6 4.6 95.6 6.9C96.4 8.6 96.4 10.5 96.2 12.3C95.7 15.6 93.3 17.9 89.9 18.1C88.6 18.2 87.3 18.2 86 18.2C85.8 18.2 85.7 18.3 85.5 18.5C85.1 19.2 84.6 19.8 84.2 20.5C84.2 20.6 84.1 20.6 84.1 20.7C85.7 20.7 87.4 20.7 89 20.7C89.8 20.7 90.7 20.6 91.5 20.5C94.8 19.9 97.3 18 98.4 14.8C99.3 12.4 99.3 10 98.7 7.6C98.3 5.89999 97.5 4.29999 96.2 3.09999C94.3 1.29999 92 0.599995 89.4 0.599995C86.9 0.599995 84.4 0.599995 81.9 0.599995C81.8 0.599995 81.7 0.599995 81.5 0.599995C81.5 2.2 81.5 3.7 81.5 5.2C82.4 5.2 83.2 5.2 84.1 5.2C84.1 4.5 84.1 3.79999 84.1 2.99999C84.1 2.99999 84.3 2.9 84.4 2.9ZM71 9.7C70 11.3 69.8 13.1 70.1 15C70.4 16.6 71.1 18 72.3 19.1C73.8 20.4 75.5 20.9 77.4 20.7C79.8 20.6 81.7 19.5 83 17.3C83.7 16.1 83.9 14.8 83.9 13.4C83.9 9.39999 80.9 6.4 76.2 6.4C74.4 6.6 72.4 7.5 71 9.7ZM74.1 9.89999C76.5 7.7 80.2 8.7 81.1 11.8C81.6 13.3 81.5 14.8 80.8 16.2C80 17.7 78.7 18.5 76.9 18.5C75 18.5 73.8 17.5 73 15.8C72.7 15.1 72.6 14.4 72.6 13.3C72.6 12.2 73 10.9 74.1 9.89999ZM41.4 13.9C41.4 14.4 41.3 14.9 41.3 15.4C41 17.1 39.8 18.3 38.2 18.6C36.7 18.8 35.2 18.3 34.7 16.5C34.6 16.1 34.5 15.7 34.5 15.3C34.5 12.6 34.5 9.89999 34.5 7.2C34.5 7.1 34.5 6.9 34.5 6.8C33.6 6.8 32.8 6.8 32 6.8C32 6.9 32 7.1 32 7.2C32 10 32 12.8 32 15.6C32 16 32 16.4 32.1 16.8C32.3 18.3 32.9 19.5 34.3 20.2C36.2 21.2 39.3 21.2 41.1 18.7C41.2 18.6 41.3 18.5 41.4 18.3C41.4 19.1 41.4 19.8 41.4 20.5C42.2 20.5 43.1 20.5 43.9 20.5C43.9 15.9 43.9 11.4 43.9 6.8C43.1 6.8 42.2 6.8 41.4 6.8C41.4 9.2 41.4 11.5 41.4 13.9ZM23.2 6.8C23.2 5.4 23.2 3.99999 23.2 2.59999C22.4 2.59999 21.5 2.59999 20.7 2.59999C20.7 3.99999 20.7 5.4 20.7 6.8C19.8 6.8 18.9 6.8 18 6.8C18 7.5 18 8.2 18 8.89999C18.9 8.89999 19.8 8.89999 20.7 8.89999C20.7 9.09999 20.7 9.2 20.7 9.39999C20.7 11.8 20.7 14.3 20.7 16.7C20.7 18.4 21.4 19.7 23 20.4C24.2 20.9 25.5 20.9 26.7 20.6C28.2 20.1 29.5 18.4 29.4 17C29 16.9 28.6 16.8 28.3 16.7C27.9 16.6 27.5 16.5 27.2 16.5C27.1 16.8 27.1 17.1 27 17.3C26.7 18.3 26 18.7 24.9 18.6C24 18.5 23.4 17.9 23.3 17C23.3 16.8 23.3 16.6 23.3 16.4C23.3 14.1 23.3 11.7 23.3 9.39999C23.3 9.29999 23.3 9.2 23.3 9C25 9 26.6 9 28.2 9C28.2 8.3 28.2 7.6 28.2 6.9C26.5 6.8 24.9 6.8 23.2 6.8ZM66.9 6.8C66.1 6.8 65.2 6.8 64.5 6.8C64.5 11.4 64.5 15.9 64.5 20.5C65.3 20.5 66.1 20.5 66.9 20.5C66.9 15.9 66.9 11.4 66.9 6.8ZM67.1 1.39999C66.2 1.39999 65.3 1.39999 64.4 1.39999C64.4 2.39999 64.4 3.3 64.4 4.3C65.3 4.3 66.2 4.3 67.1 4.3C67.1 3.3 67.1 2.39999 67.1 1.39999Z" fill="white"/>
</svg>
