<svg width="98" height="98" viewBox="0 0 98 98" fill="none" xmlns="http://www.w3.org/2000/svg">
<path d="M91.875 16.3333H28.5833C27.5004 16.3333 26.4618 16.7635 25.696 17.5293C24.9302 18.2951 24.5 19.3337 24.5 20.4167V69.4167C24.5 70.4996 24.9302 71.5382 25.696 72.304C26.4618 73.0698 27.5004 73.5 28.5833 73.5H52.4708L76.4563 89.4903C76.7637 89.6938 77.1205 89.8103 77.4888 89.8274C77.857 89.8445 78.2231 89.7615 78.548 89.5873C78.8729 89.4131 79.1446 89.1542 79.3342 88.8381C79.5238 88.5219 79.6243 88.1603 79.625 87.7917V73.5H91.875C92.958 73.5 93.9966 73.0698 94.7624 72.304C95.5281 71.5382 95.9583 70.4996 95.9583 69.4167V20.4167C95.9583 19.3337 95.5281 18.2951 94.7624 17.5293C93.9966 16.7635 92.958 16.3333 91.875 16.3333Z" fill="#283583"/>
<path d="M75.541 4.08333H6.12435C5.04138 4.08333 4.00277 4.51354 3.237 5.27931C2.47122 6.04508 2.04102 7.08369 2.04102 8.16666V57.1667C2.04102 58.2496 2.47122 59.2882 3.237 60.054C4.00277 60.8198 5.04138 61.25 6.12435 61.25H18.3743V79.625C18.3743 80.1665 18.5895 80.6858 18.9723 81.0687C19.3552 81.4516 19.8745 81.6667 20.416 81.6667C20.8418 81.6678 21.257 81.5341 21.6022 81.2849L49.6527 61.25H75.541C76.624 61.25 77.6626 60.8198 78.4284 60.054C79.1941 59.2882 79.6244 58.2496 79.6244 57.1667V8.16666C79.6244 7.08369 79.1941 6.04508 78.4284 5.27931C77.6626 4.51354 76.624 4.08333 75.541 4.08333Z" fill="#BFC2DB"/>
</svg>
