<svg width="86" height="86" viewBox="0 0 86 86" fill="none" xmlns="http://www.w3.org/2000/svg">
<path d="M68.084 84.2083H7.16732C5.18753 84.2083 3.58398 82.6048 3.58398 80.625V5.37501C3.58398 3.39521 5.18753 1.79167 7.16732 1.79167H50.1673L71.6673 23.2917V80.625C71.6673 82.6048 70.0638 84.2083 68.084 84.2083Z" fill="#E6E6E6"/>
<path d="M50.168 1.79167V19.7083C50.168 21.6881 51.7715 23.2917 53.7513 23.2917H71.668L50.168 1.79167Z" fill="#B3B3B3"/>
<path d="M62.7096 71.6667C72.6047 71.6667 80.6263 63.6451 80.6263 53.75C80.6263 43.8549 72.6047 35.8333 62.7096 35.8333C52.8145 35.8333 44.793 43.8549 44.793 53.75C44.793 63.6451 52.8145 71.6667 62.7096 71.6667Z" fill="white"/>
<path d="M62.7083 73.4583C51.8419 73.4583 43 64.6165 43 53.75C43 42.8835 51.8419 34.0417 62.7083 34.0417C73.5748 34.0417 82.4167 42.8835 82.4167 53.75C82.4167 64.6165 73.5748 73.4583 62.7083 73.4583ZM62.7083 37.625C53.8163 37.625 46.5833 44.858 46.5833 53.75C46.5833 62.642 53.8163 69.875 62.7083 69.875C71.6004 69.875 78.8333 62.642 78.8333 53.75C78.8333 44.858 71.6004 37.625 62.7083 37.625Z" fill="#283583"/>
<path d="M69.8763 55.5417H62.7096C61.7188 55.5417 60.918 54.7408 60.918 53.75V46.5833C60.918 45.5925 61.7188 44.7917 62.7096 44.7917C63.7004 44.7917 64.5013 45.5925 64.5013 46.5833V51.9583H69.8763C70.8671 51.9583 71.668 52.7592 71.668 53.75C71.668 54.7408 70.8671 55.5417 69.8763 55.5417Z" fill="#283583"/>
</svg>
