<svg width="52" height="52" viewBox="0 0 52 52" fill="none" xmlns="http://www.w3.org/2000/svg">
<path d="M26 0C16.4667 0 6.5 7.36667 6.5 19.5C6.5 30.9833 23.8333 48.5333 24.4833 49.1833C24.9167 49.6167 25.35 49.8333 26 49.8333C26.65 49.8333 27.0833 49.6167 27.5167 49.1833C28.1667 48.5333 45.5 30.9833 45.5 19.5C45.5 7.36667 35.5333 0 26 0ZM26 26C22.3167 26 19.5 23.1833 19.5 19.5C19.5 15.8167 22.3167 13 26 13C29.6833 13 32.5 15.8167 32.5 19.5C32.5 23.1833 29.6833 26 26 26Z" fill="#283583"/>
</svg>
