<svg width="16" height="16" viewBox="0 0 16 16" fill="none" xmlns="http://www.w3.org/2000/svg">
<g clip-path="url(#clip0_2226_7163)">
<path d="M8 0.5C9.98912 0.5 11.8968 1.29018 13.3033 2.6967C14.7098 4.10322 15.5 6.01088 15.5 8C15.5 9.98912 14.7098 11.8968 13.3033 13.3033C11.8968 14.7098 9.98912 15.5 8 15.5" stroke="#548C63" stroke-linecap="round" stroke-linejoin="round"/>
<path d="M0.531 8.62205C0.514 8.41705 0.5 8.21005 0.5 8.00005C0.5 7.79005 0.514 7.58305 0.531 7.37805" stroke="#548C63" stroke-linecap="round" stroke-linejoin="round"/>
<path d="M4.07422 1.618C4.42736 1.39858 4.79834 1.20924 5.18322 1.052" stroke="#548C63" stroke-linecap="round" stroke-linejoin="round"/>
<path d="M1.3125 4.62101C1.50005 4.25031 1.71849 3.89606 1.9655 3.56201" stroke="#548C63" stroke-linecap="round" stroke-linejoin="round"/>
<path d="M1.95078 12.42C1.70506 12.0839 1.48765 11.728 1.30078 11.356" stroke="#548C63" stroke-linecap="round" stroke-linejoin="round"/>
<path d="M0.531 7.37805C0.514 7.58305 0.5 7.79005 0.5 8.00005C0.5 8.21005 0.514 8.41705 0.531 8.62205" stroke="#548C63" stroke-linecap="round" stroke-linejoin="round"/>
<path d="M5.18322 1.052C4.79834 1.20924 4.42736 1.39858 4.07422 1.618" stroke="#548C63" stroke-linecap="round" stroke-linejoin="round"/>
<path d="M1.9655 3.56201C1.71849 3.89606 1.50005 4.25031 1.3125 4.62101" stroke="#548C63" stroke-linecap="round" stroke-linejoin="round"/>
<path d="M4.0625 14.374C4.41659 14.5948 4.78856 14.7854 5.1745 14.944" stroke="#548C63" stroke-linecap="round" stroke-linejoin="round"/>
<path d="M1.30078 11.356C1.48765 11.728 1.70506 12.0839 1.95078 12.42" stroke="#548C63" stroke-linecap="round" stroke-linejoin="round"/>
<path d="M4.5 8.5L6.5 10.5L11.5 5.5" stroke="#548C63" stroke-linecap="round" stroke-linejoin="round"/>
</g>
<defs>
<clipPath id="clip0_2226_7163">
<rect width="16" height="16" fill="white"/>
</clipPath>
</defs>
</svg>
