<svg width="45" height="52" viewBox="0 0 45 52" fill="none" xmlns="http://www.w3.org/2000/svg">
<path d="M42.7857 38H16.2143C14.9909 38 14 36.9997 14 35.7647V2.23529C14 1.00029 14.9909 0 16.2143 0H42.7857C44.0091 0 45 1.00029 45 2.23529V35.7647C45 36.9997 44.0091 38 42.7857 38Z" fill="#B3B3B3"/>
<path d="M35.7857 45H9.21429C7.99089 45 7 43.9997 7 42.7647V9.23529C7 8.00029 7.99089 7 9.21429 7H35.7857C37.0091 7 38 8.00029 38 9.23529V42.7647C38 43.9997 37.0091 45 35.7857 45Z" fill="#C6C6C6"/>
<path d="M29.7143 52H2.28571C1.02286 52 0 50.9997 0 49.7647V16.2353C0 15.0003 1.02286 14 2.28571 14H29.7143C30.9771 14 32 15.0003 32 16.2353V49.7647C32 50.9997 30.9771 52 29.7143 52Z" fill="#E6E6E6"/>
<path d="M35 25C33.0222 25 31.0888 25.5865 29.4443 26.6853C27.7998 27.7841 26.5181 29.3459 25.7612 31.1732C25.0043 33.0004 24.8063 35.0111 25.1922 36.9509C25.578 38.8907 26.5304 40.6725 27.9289 42.0711C29.3275 43.4696 31.1093 44.422 33.0491 44.8079C34.9889 45.1937 36.9996 44.9957 38.8268 44.2388C40.6541 43.4819 42.2159 42.2002 43.3147 40.5557C44.4135 38.9112 45 36.9778 45 35C44.9971 32.3487 43.9426 29.8069 42.0679 27.9321C40.1931 26.0574 37.6513 25.0029 35 25Z" fill="#EFD358"/>
<path d="M38.3 40.724C38.192 40.7238 38.0856 40.6974 37.99 40.647L35 39.078L32.014 40.647C31.9041 40.7044 31.7804 40.7301 31.6568 40.7211C31.5331 40.7121 31.4144 40.6689 31.314 40.5962C31.2135 40.5235 31.1354 40.4242 31.0882 40.3095C31.0411 40.1949 31.0268 40.0693 31.047 39.947L31.617 36.623L29.2 34.265C29.1111 34.1781 29.0482 34.068 29.0186 33.9473C28.9889 33.8265 28.9935 33.6999 29.032 33.5816C29.0705 33.4634 29.1413 33.3582 29.2363 33.2781C29.3314 33.1979 29.447 33.146 29.57 33.128L32.909 32.643L34.4 29.618C34.4623 29.5145 34.5502 29.4288 34.6553 29.3693C34.7605 29.3098 34.8792 29.2786 35 29.2786C35.1208 29.2786 35.2396 29.3098 35.3447 29.3693C35.4498 29.4288 35.5378 29.5145 35.6 29.618L37.092 32.643L40.431 33.128C40.5541 33.146 40.6697 33.1979 40.7647 33.2781C40.8598 33.3582 40.9306 33.4634 40.969 33.5816C41.0075 33.6999 41.0122 33.8265 40.9825 33.9473C40.9528 34.068 40.89 34.1781 40.801 34.265L38.383 36.62L38.953 39.944C38.9693 40.0397 38.9645 40.1378 38.939 40.2315C38.9135 40.3251 38.8679 40.4121 38.8054 40.4864C38.7429 40.5606 38.6649 40.6203 38.5769 40.6614C38.489 40.7024 38.3931 40.7238 38.296 40.724H38.3Z" fill="white"/>
</svg>
