<svg width="20" height="20" viewBox="0 0 20 20" fill="none" xmlns="http://www.w3.org/2000/svg">
<g clip-path="url(#clip0)">
<path d="M10.4167 19.5833C15.4793 19.5833 19.5833 15.4793 19.5833 10.4167C19.5833 5.35406 15.4793 1.25 10.4167 1.25C5.35406 1.25 1.25 5.35406 1.25 10.4167C1.25 15.4793 5.35406 19.5833 10.4167 19.5833Z" stroke="#283583" stroke-miterlimit="10" stroke-linecap="square"/>
<path d="M10.4173 16.25C10.8776 16.25 11.2507 15.8769 11.2507 15.4167C11.2507 14.9564 10.8776 14.5833 10.4173 14.5833C9.95708 14.5833 9.58398 14.9564 9.58398 15.4167C9.58398 15.8769 9.95708 16.25 10.4173 16.25Z" fill="#283583"/>
<path d="M8.62695 5.88333C10.277 5.15416 12.412 5.24083 13.1411 6.42083C13.8703 7.60083 13.367 8.97333 12.117 10.0325C10.867 11.0917 10.4161 11.6667 10.4161 12.5" stroke="#283583" stroke-miterlimit="10" stroke-linecap="square"/>
</g>
<defs>
<clipPath id="clip0">
<rect width="20" height="20" fill="white"/>
</clipPath>
</defs>
</svg>
