<svg width="100" height="100" viewBox="0 0 100 100" fill="none" xmlns="http://www.w3.org/2000/svg">
<path d="M4.16602 85.4167C4.16602 86.5217 4.605 87.5815 5.3864 88.3629C6.16781 89.1443 7.22761 89.5833 8.33268 89.5833H89.5827C91.2403 89.5833 92.83 88.9248 94.0021 87.7527C95.1742 86.5806 95.8327 84.9909 95.8327 83.3333V31.25H4.16602V85.4167Z" fill="#E6E6E6"/>
<path d="M91.666 10.4167H8.33268C7.22761 10.4167 6.16781 10.8556 5.3864 11.637C4.605 12.4184 4.16602 13.4783 4.16602 14.5833V31.25H95.8327V14.5833C95.8327 13.4783 95.3937 12.4184 94.6123 11.637C93.8309 10.8556 92.7711 10.4167 91.666 10.4167Z" fill="#E86C60"/>
<path d="M20.832 20.8333V4.16666C20.832 3.61413 21.0515 3.08422 21.4422 2.69352C21.8329 2.30282 22.3628 2.08333 22.9154 2.08333H27.082C27.6346 2.08333 28.1645 2.30282 28.5552 2.69352C28.9459 3.08422 29.1654 3.61413 29.1654 4.16666V20.8333C29.1654 21.3859 28.9459 21.9158 28.5552 22.3065C28.1645 22.6972 27.6346 22.9167 27.082 22.9167H22.9154C22.3628 22.9167 21.8329 22.6972 21.4422 22.3065C21.0515 21.9158 20.832 21.3859 20.832 20.8333Z" fill="#444444"/>
<path d="M70.832 20.8333V4.16666C70.832 3.61413 71.0515 3.08422 71.4422 2.69352C71.8329 2.30282 72.3628 2.08333 72.9154 2.08333H77.082C77.6346 2.08333 78.1645 2.30282 78.5552 2.69352C78.9459 3.08422 79.1654 3.61413 79.1654 4.16666V20.8333C79.1654 21.3859 78.9459 21.9158 78.5552 22.3065C78.1645 22.6972 77.6346 22.9167 77.082 22.9167H72.9154C72.3628 22.9167 71.8329 22.6972 71.4422 22.3065C71.0515 21.9158 70.832 21.3859 70.832 20.8333Z" fill="#444444"/>
<path d="M77.0833 97.9167C81.2038 97.9167 85.2317 96.6948 88.6577 94.4056C92.0837 92.1164 94.754 88.8627 96.3308 85.0559C97.9076 81.2491 98.3202 77.0602 97.5164 73.0189C96.7125 68.9777 94.7283 65.2655 91.8147 62.3519C88.9011 59.4383 85.189 57.4542 81.1477 56.6503C77.1064 55.8464 72.9176 56.259 69.1108 57.8358C65.304 59.4127 62.0502 62.0829 59.7611 65.5089C57.4719 68.935 56.25 72.9629 56.25 77.0833C56.25 82.6087 58.4449 87.9077 62.3519 91.8147C66.2589 95.7217 71.558 97.9167 77.0833 97.9167Z" fill="#335262"/>
<path d="M75 66.6667C75 66.1141 75.2195 65.5842 75.6102 65.1935C76.0009 64.8028 76.5308 64.5833 77.0833 64.5833C77.6359 64.5833 78.1658 64.8028 78.5565 65.1935C78.9472 65.5842 79.1667 66.1141 79.1667 66.6667V75H87.5C88.0525 75 88.5824 75.2195 88.9731 75.6102C89.3638 76.0009 89.5833 76.5308 89.5833 77.0833C89.5833 77.6359 89.3638 78.1658 88.9731 78.5565C88.5824 78.9472 88.0525 79.1667 87.5 79.1667H77.0833C76.5308 79.1667 76.0009 78.9472 75.6102 78.5565C75.2195 78.1658 75 77.6359 75 77.0833V66.6667Z" fill="white"/>
</svg>
