<svg width="48" height="48" viewBox="0 0 48 48" fill="none" xmlns="http://www.w3.org/2000/svg">
<path d="M44 7H10C9.20435 7 8.44129 7.31607 7.87868 7.87868C7.31607 8.44129 7 9.20435 7 10V45C6.99972 45.1903 7.05374 45.3767 7.15571 45.5373C7.25768 45.698 7.40336 45.8262 7.57567 45.907C7.74797 45.9877 7.93973 46.0176 8.12843 45.9932C8.31714 45.9687 8.49495 45.891 8.641 45.769L20.362 36H44C44.7957 36 45.5587 35.6839 46.1213 35.1213C46.6839 34.5587 47 33.7956 47 33V10C47 9.20435 46.6839 8.44129 46.1213 7.87868C45.5587 7.31607 44.7957 7 44 7Z" fill="#BFDEE0"/>
<path d="M1 11C1 12.9778 1.58649 14.9112 2.6853 16.5557C3.78412 18.2002 5.3459 19.4819 7.17317 20.2388C9.00043 20.9957 11.0111 21.1937 12.9509 20.8079C14.8907 20.422 16.6725 19.4696 18.0711 18.0711C19.4696 16.6725 20.422 14.8907 20.8079 12.9509C21.1937 11.0111 20.9957 9.00043 20.2388 7.17317C19.4819 5.3459 18.2002 3.78412 16.5557 2.6853C14.9112 1.58649 12.9778 1 11 1C8.34784 1 5.8043 2.05357 3.92893 3.92893C2.05357 5.8043 1 8.34784 1 11Z" fill="#72C472"/>
<path d="M12 7V10H15C15.2652 10 15.5196 10.1054 15.7071 10.2929C15.8946 10.4804 16 10.7348 16 11C16 11.2652 15.8946 11.5196 15.7071 11.7071C15.5196 11.8946 15.2652 12 15 12H12V15C12 15.2652 11.8946 15.5196 11.7071 15.7071C11.5196 15.8946 11.2652 16 11 16C10.7348 16 10.4804 15.8946 10.2929 15.7071C10.1054 15.5196 10 15.2652 10 15V12H7C6.73478 12 6.48043 11.8946 6.29289 11.7071C6.10536 11.5196 6 11.2652 6 11C6 10.7348 6.10536 10.4804 6.29289 10.2929C6.48043 10.1054 6.73478 10 7 10H10V7C10 6.73478 10.1054 6.48043 10.2929 6.29289C10.4804 6.10536 10.7348 6 11 6C11.2652 6 11.5196 6.10536 11.7071 6.29289C11.8946 6.48043 12 6.73478 12 7Z" fill="white"/>
</svg>
