<svg width="48" height="48" viewBox="0 0 48 48" fill="none" xmlns="http://www.w3.org/2000/svg">
<path opacity="0.4" d="M17.3661 8.21899C17.151 7.57318 17.0314 6.89939 17.0111 6.21899C12.9191 7.6661 9.37552 10.3445 6.86682 13.8863C4.35812 17.4281 3.00739 21.6597 3.00009 26C2.99035 29.2829 3.75867 32.5214 5.24209 35.45L5.69209 36.344L7.47909 35.444L7.02709 34.552C5.68608 31.9012 4.99148 28.9707 5.00009 26C5.00666 22.1299 6.19411 18.3539 8.4038 15.1766C10.6135 11.9993 13.7402 9.572 17.3661 8.21899Z" fill="#6EAE7F"/>
<path opacity="0.4" d="M40.9584 34.634L40.4584 35.499C39.0795 37.892 37.1948 39.9552 34.936 41.5443C32.6772 43.1335 30.0986 44.2105 27.3805 44.6999C24.6623 45.1894 21.8701 45.0796 19.1988 44.3782C16.5275 43.6768 14.0415 42.4007 11.9144 40.639C11.4621 41.1491 10.9371 41.5898 10.3564 41.947C12.6973 43.954 15.4518 45.4204 18.4238 46.2418C21.3958 47.0632 24.5124 47.2195 27.5517 46.6994C30.591 46.1793 33.4783 44.9957 36.0081 43.2329C38.5379 41.47 40.6481 39.1712 42.1884 36.5L42.6884 35.634L40.9584 34.634Z" fill="#6EAE7F"/>
<path d="M6.67871 41C9.44014 41 11.6787 38.7614 11.6787 36C11.6787 33.2386 9.44014 31 6.67871 31C3.91729 31 1.67871 33.2386 1.67871 36C1.67871 38.7614 3.91729 41 6.67871 41Z" fill="#283583"/>
<path opacity="0.4" d="M43 26C42.9965 27.0581 42.9052 28.1141 42.727 29.157C43.3943 29.2929 44.0381 29.5257 44.638 29.848C45.2089 26.8163 45.1037 23.6959 44.33 20.7095C43.5563 17.7231 42.1332 14.9441 40.1621 12.5709C38.191 10.1977 35.7205 8.28872 32.9268 6.98005C30.1331 5.67138 27.085 4.9953 24 5.00002H23V7.00002H24C29.0374 7.00558 33.8669 9.00915 37.4289 12.5711C40.9909 16.1331 42.9944 20.9626 43 26Z" fill="#6EAE7F"/>
<path d="M41.3203 41C44.0817 41 46.3203 38.7614 46.3203 36C46.3203 33.2386 44.0817 31 41.3203 31C38.5589 31 36.3203 33.2386 36.3203 36C36.3203 38.7614 38.5589 41 41.3203 41Z" fill="#283583"/>
<path d="M24 11C26.7614 11 29 8.76142 29 6C29 3.23858 26.7614 1 24 1C21.2386 1 19 3.23858 19 6C19 8.76142 21.2386 11 24 11Z" fill="#283583"/>
</svg>
