<svg width="48" height="48" viewBox="0 0 48 48" fill="none" xmlns="http://www.w3.org/2000/svg">
<path d="M17 5L13 1H3C1.895 1 1 1.895 1 3V37C1 39.209 2.791 41 5 41H43C45.209 41 47 39.209 47 37V9C47 6.791 45.209 5 43 5H17Z" fill="#F9D44C"/>
<path d="M47 11H1V3C1 1.895 1.895 1 3 1H13L17 5H43C45.209 5 47 6.791 47 9V11Z" fill="#C7AA3D"/>
<path d="M38 33C37.448 33 37 32.552 37 32V28C37 26.346 35.654 25 34 25C32.346 25 31 26.346 31 28V32C31 32.552 30.552 33 30 33C29.448 33 29 32.552 29 32V28C29 25.243 31.243 23 34 23C36.757 23 39 25.243 39 28V32C39 32.552 38.552 33 38 33Z" fill="#444444"/>
<path d="M41 47H27C25.895 47 25 46.105 25 45V33C25 31.895 25.895 31 27 31H41C42.105 31 43 31.895 43 33V45C43 46.105 42.105 47 41 47Z" fill="#E6E6E6"/>
<path d="M36 38C36 36.895 35.105 36 34 36C32.895 36 32 36.895 32 38C32 38.738 32.405 39.376 33 39.723V43H35V39.723C35.595 39.376 36 38.738 36 38Z" fill="#444444"/>
</svg>
