<svg width="29" height="24" viewBox="0 0 29 24" fill="none" xmlns="http://www.w3.org/2000/svg">
<path d="M9.49967 23.5502C20.2346 23.5502 26.1051 14.6637 26.1051 6.95763C26.1051 6.70522 26.0999 6.45396 26.0886 6.20383C27.2282 5.38067 28.2186 4.35343 28.9998 3.18406C27.9541 3.64851 26.8288 3.96117 25.6483 4.10215C26.8532 3.38018 27.7783 2.23811 28.2147 0.876635C27.0871 1.5446 25.8383 2.03008 24.5087 2.29219C23.4437 1.15868 21.9275 0.449707 20.2487 0.449707C17.0257 0.449707 14.4121 3.06135 14.4121 6.28056C14.4121 6.73818 14.4633 7.18331 14.5635 7.61027C9.7129 7.36639 5.41178 5.04585 2.53322 1.51731C2.032 2.37912 1.74299 3.38021 1.74299 4.44838C1.74299 6.47161 2.77334 8.25773 4.34015 9.30263C3.38263 9.27307 2.48316 9.01042 1.69699 8.57326C1.69613 8.59773 1.69612 8.62159 1.69612 8.64774C1.69612 11.472 3.70785 13.83 6.37831 14.3643C5.8879 14.4979 5.37192 14.5695 4.83938 14.5695C4.46389 14.5695 4.09807 14.5326 3.74249 14.4644C4.4855 16.7815 6.64004 18.4676 9.19443 18.5147C7.19693 20.0792 4.68063 21.011 1.94584 21.011C1.47534 21.011 1.01053 20.9842 0.553711 20.9303C3.13664 22.5845 6.20362 23.5498 9.49999 23.5498" fill="black"/>
</svg>
