<svg width="98" height="98" viewBox="0 0 98 98" fill="none" xmlns="http://www.w3.org/2000/svg">
<path d="M76.8638 67.3321L30.667 21.1353C30.421 20.8891 30.1162 20.7099 29.7815 20.6146C29.4468 20.5193 29.0933 20.5112 28.7545 20.5909C28.4158 20.6707 28.103 20.8358 27.846 21.0704C27.589 21.305 27.3962 21.6015 27.286 21.9316L4.1886 91.2298C4.08643 91.5366 4.05857 91.8632 4.10733 92.1829C4.15609 92.5025 4.28007 92.806 4.46906 93.0683C4.65804 93.3307 4.90664 93.5444 5.19438 93.6919C5.48212 93.8394 5.80077 93.9164 6.1241 93.9167C6.3435 93.9166 6.56143 93.8808 6.76927 93.8105L76.0675 70.7131C76.3976 70.6029 76.6941 70.4101 76.9287 70.1531C77.1633 69.8961 77.3284 69.5833 77.4082 69.2446C77.4879 68.9058 77.4798 68.5523 77.3845 68.2176C77.2892 67.8829 77.11 67.5781 76.8638 67.3321Z" fill="#EFD358"/>
<path d="M76.8639 70.2209C80.8505 66.2343 73.0942 52.0144 59.5398 38.46C45.9854 24.9055 31.7655 17.1493 27.7789 21.1359C23.7923 25.1225 31.5486 39.3423 45.103 52.8967C58.6575 66.4512 72.8773 74.2075 76.8639 70.2209Z" fill="#E2AC4B"/>
<path d="M63.2918 51.0417C62.9487 51.04 62.6115 50.952 62.3114 50.7856C62.0113 50.6192 61.758 50.3799 61.5749 50.0897C61.3917 49.7995 61.2847 49.4679 61.2636 49.1254C61.2425 48.7829 61.3081 48.4407 61.4543 48.1302C66.5911 37.2094 79.4312 33.4302 92.6714 38.9427C93.1712 39.1512 93.5677 39.5497 93.7737 40.0505C93.9797 40.5513 93.9783 41.1135 93.7698 41.6132C93.5613 42.113 93.1628 42.5095 92.662 42.7155C92.1612 42.9215 91.5991 42.9201 91.0993 42.7117C79.9702 38.0771 69.3066 41.0212 65.1497 49.8575C64.9857 50.2119 64.7235 50.5118 64.3942 50.7217C64.0649 50.9316 63.6823 51.0426 63.2918 51.0417Z" fill="#43A6DD"/>
<path d="M75.541 24.5C78.9238 24.5 81.666 21.7577 81.666 18.375C81.666 14.9923 78.9238 12.25 75.541 12.25C72.1583 12.25 69.416 14.9923 69.416 18.375C69.416 21.7577 72.1583 24.5 75.541 24.5Z" fill="#E86C60"/>
<path d="M83.7083 83.7083C85.9635 83.7083 87.7917 81.8802 87.7917 79.625C87.7917 77.3698 85.9635 75.5417 83.7083 75.5417C81.4532 75.5417 79.625 77.3698 79.625 79.625C79.625 81.8802 81.4532 83.7083 83.7083 83.7083Z" fill="#E2AC4B"/>
<path d="M57.1654 40.8333C59.4205 40.8333 61.2487 39.0052 61.2487 36.75C61.2487 34.4948 59.4205 32.6667 57.1654 32.6667C54.9102 32.6667 53.082 34.4948 53.082 36.75C53.082 39.0052 54.9102 40.8333 57.1654 40.8333Z" fill="#5A7A84"/>
<path d="M86.7695 57.1667C88.4609 57.1667 89.832 55.7955 89.832 54.1042C89.832 52.4128 88.4609 51.0417 86.7695 51.0417C85.0782 51.0417 83.707 52.4128 83.707 54.1042C83.707 55.7955 85.0782 57.1667 86.7695 57.1667Z" fill="#AE453E"/>
<path d="M35.7285 12.25C37.4199 12.25 38.791 10.8789 38.791 9.1875C38.791 7.49613 37.4199 6.125 35.7285 6.125C34.0371 6.125 32.666 7.49613 32.666 9.1875C32.666 10.8789 34.0371 12.25 35.7285 12.25Z" fill="#E2AC4B"/>
<path d="M42.8737 38.7917C42.4452 38.7917 42.0275 38.6568 41.6799 38.4063C41.3323 38.1557 41.0723 37.8022 40.9368 37.3956C40.8013 36.9891 40.7971 36.5503 40.9249 36.1412C41.0527 35.7322 41.3059 35.3738 41.6487 35.1167C46.2044 31.7248 49.4433 26.8585 50.8136 21.3465C52.184 15.8346 51.601 10.0181 49.1641 4.88775C48.9597 4.39175 48.9588 3.83525 49.1615 3.33858C49.3642 2.84191 49.7543 2.44497 50.2473 2.23359C50.7404 2.02221 51.2968 2.01337 51.7963 2.20898C52.2958 2.40459 52.6983 2.78894 52.9167 3.27892C55.7336 9.24723 56.3944 16.0075 54.7865 22.4083C53.1787 28.8092 49.4016 34.4547 44.0987 38.3833C43.7457 38.6492 43.3156 38.7926 42.8737 38.7917Z" fill="#E86C60"/>
<path d="M8.51697 28.2322C7.97553 28.2321 7.45631 28.0169 7.07351 27.634C6.09851 26.6923 5.32082 25.5658 4.78581 24.3204C4.2508 23.0749 3.9692 21.7354 3.95742 20.3799C3.94564 19.0245 4.20393 17.6803 4.71721 16.4257C5.23049 15.1711 5.98849 14.0313 6.94698 13.0729C7.90547 12.1144 9.04525 11.3564 10.2998 10.8431C11.5544 10.3298 12.8986 10.0715 14.2541 10.0833C15.6095 10.0951 16.9491 10.3767 18.1945 10.9117C19.44 11.4467 20.5664 12.2244 21.5081 13.1994C21.88 13.5844 22.0858 14.1002 22.0811 14.6355C22.0765 15.1708 21.8618 15.6829 21.4832 16.0614C21.1047 16.44 20.5926 16.6547 20.0573 16.6593C19.522 16.664 19.0062 16.4582 18.6212 16.0863C17.4545 14.9728 15.9036 14.3515 14.2908 14.3515C12.678 14.3515 11.1271 14.9728 9.96043 16.0863C8.81217 17.2349 8.16711 18.7925 8.16711 20.4167C8.16711 22.0408 8.81217 23.5984 9.96043 24.7471C10.2459 25.0326 10.4403 25.3963 10.519 25.7923C10.5977 26.1883 10.5573 26.5987 10.4028 26.9718C10.2483 27.3448 9.9867 27.6636 9.65103 27.888C9.31536 28.1123 8.92071 28.2321 8.51697 28.2322Z" fill="#43A6DD"/>
</svg>
